JosefinSlab-Italic_ik.ufo
<glyph name="quotesingle" format="1">
  <advance width="202"/>
  <unicode hex="0027"/>
  <outline>
    <contour>
      <point x="96" y="476" type="line"/>
      <point x="126" y="726" type="line"/>
      <point x="187" y="726" type="line"/>
      <point x="179" y="663"/>
      <point x="160" y="539"/>
      <point x="152" y="476" type="qcurve"/>
    </contour>
  </outline>
</glyph>
<glyph name="period" format="1">
  <advance width="209"/>
  <unicode hex="002E"/>
  <outline>
    <contour>
      <point x="35" y="36" type="qcurve"/>
      <point x="35" y="56"/>
      <point x="65" y="82"/>
      <point x="82" y="82" type="qcurve"/>
      <point x="96" y="82"/>
      <point x="117" y="61"/>
      <point x="117" y="45" type="qcurve"/>
      <point x="117" y="25"/>
      <point x="88" y="0"/>
      <point x="71" y="0" type="qcurve"/>
      <point x="57" y="0"/>
      <point x="35" y="20"/>
    </contour>
  </outline>
</glyph>
<glyph name="seven" format="1">
  <advance width="467"/>
  <unicode hex="0037"/>
  <outline>
    <contour>
      <point x="70" y="541" type="line"/>
      <point x="84" y="655" type="line"/>
      <point x="496" y="655" type="line"/>
      <point x="405" y="486"/>
      <point x="230" y="165"/>
      <point x="142" y="0" type="qcurve"/>
      <point x="74" y="0" type="line"/>
      <point x="398" y="598" type="line"/>
      <point x="133" y="598" type="line"/>
      <point x="126" y="541" type="line"/>
    </contour>
  </outline>
</glyph>
<glyph name="eight" format="1">
  <advance width="533"/>
  <unicode hex="0038"/>
  <outline>
    <contour>
      <point x="195" y="498" type="qcurve"/>
      <point x="195" y="463"/>
      <point x="247" y="417"/>
      <point x="285" y="417" type="qcurve"/>
      <point x="306" y="417"/>
      <point x="345" y="432"/>
      <point x="375" y="459"/>
      <point x="393" y="495"/>
      <point x="393" y="516" type="qcurve"/>
      <point x="393" y="553"/>
      <point x="345" y="606"/>
      <point x="308" y="606" type="qcurve"/>
      <point x="286" y="606"/>
      <point x="245" y="588"/>
      <point x="214" y="558"/>
      <point x="195" y="519"/>
    </contour>
    <contour>
      <point x="103" y="190" type="qcurve"/>
      <point x="103" y="161"/>
      <point x="123" y="109"/>
      <point x="159" y="71"/>
      <point x="208" y="49"/>
      <point x="237" y="49" type="qcurve"/>
      <point x="271" y="49"/>
      <point x="336" y="77"/>
      <point x="385" y="124"/>
      <point x="415" y="186"/>
      <point x="415" y="221" type="qcurve"/>
      <point x="415" y="250"/>
      <point x="394" y="300"/>
      <point x="358" y="338"/>
      <point x="308" y="360"/>
      <point x="278" y="360" type="qcurve"/>
      <point x="243" y="360"/>
      <point x="180" y="334"/>
      <point x="132" y="287"/>
      <point x="103" y="225"/>
    </contour>
    <contour>
      <point x="42" y="181" type="qcurve"/>
      <point x="42" y="221"/>
      <point x="67" y="290"/>
      <point x="109" y="344"/>
      <point x="165" y="383"/>
      <point x="196" y="393" type="qcurve"/>
      <point x="168" y="407"/>
      <point x="138" y="461"/>
      <point x="138" y="491" type="qcurve"/>
      <point x="138" y="527"/>
      <point x="166" y="590"/>
      <point x="214" y="636"/>
      <point x="277" y="663"/>
      <point x="312" y="663" type="qcurve"/>
      <point x="342" y="663"/>
      <point x="392" y="641"/>
      <point x="428" y="604"/>
      <point x="449" y="552"/>
      <point x="449" y="522" type="qcurve"/>
      <point x="449" y="479"/>
      <point x="402" y="413"/>
      <point x="364" y="393" type="qcurve"/>
      <point x="412" y="376"/>
      <point x="474" y="289"/>
      <point x="474" y="226" type="qcurve"/>
      <point x="474" y="179"/>
      <point x="436" y="95"/>
      <point x="370" y="30"/>
      <point x="282" y="-8"/>
      <point x="231" y="-8" type="qcurve"/>
      <point x="187" y="-8"/>
      <point x="118" y="22"/>
      <point x="68" y="74"/>
      <point x="42" y="142"/>
    </contour>
  </outline>
</glyph>
<glyph name="greater" format="1">
  <advance width="561"/>
  <unicode hex="003E"/>
  <outline>
    <contour>
      <point x="48" y="-15" type="line"/>
      <point x="57" y="64" type="line"/>
      <point x="140" y="108"/>
      <point x="303" y="195"/>
      <point x="385" y="240" type="qcurve"/>
      <point x="313" y="285"/>
      <point x="172" y="372"/>
      <point x="100" y="416" type="qcurve"/>
      <point x="110" y="494" type="line"/>
      <point x="213" y="431"/>
      <point x="417" y="303"/>
      <point x="520" y="240" type="qcurve"/>
    </contour>
  </outline>
</glyph>
<glyph name="Q" format="1">
  <advance width="832"/>
  <unicode hex="0051"/>
  <outline>
    <contour>
      <point x="56" y="319" type="qcurve"/>
      <point x="56" y="401"/>
      <point x="124" y="547"/>
      <point x="238" y="657"/>
      <point x="387" y="722"/>
      <point x="468" y="722" type="qcurve"/>
      <point x="537" y="722"/>
      <point x="656" y="670"/>
      <point x="743" y="581"/>
      <point x="792" y="461"/>
      <point x="792" y="392" type="qcurve"/>
      <point x="792" y="346"/>
      <point x="764" y="256"/>
      <point x="713" y="170"/>
      <point x="640" y="93"/>
      <point x="594" y="60" type="qcurve"/>
      <point x="776" y="65" type="line"/>
      <point x="768" y="0" type="line"/>
      <point x="455" y="0" type="line"/>
      <point x="435" y="-4"/>
      <point x="398" y="-8"/>
      <point x="378" y="-8" type="qcurve"/>
      <point x="308" y="-8"/>
      <point x="190" y="43"/>
      <point x="104" y="131"/>
      <point x="56" y="251"/>
    </contour>
    <contour>
      <point x="124" y="325" type="qcurve"/>
      <point x="124" y="269"/>
      <point x="163" y="171"/>
      <point x="233" y="99"/>
      <point x="329" y="57"/>
      <point x="386" y="57" type="qcurve"/>
      <point x="452" y="57"/>
      <point x="574" y="109"/>
      <point x="667" y="199"/>
      <point x="723" y="319"/>
      <point x="723" y="386" type="qcurve"/>
      <point x="723" y="442"/>
      <point x="683" y="541"/>
      <point x="613" y="614"/>
      <point x="517" y="656"/>
      <point x="460" y="656" type="qcurve"/>
      <point x="394" y="656"/>
      <point x="272" y="603"/>
      <point x="179" y="513"/>
      <point x="124" y="392"/>
    </contour>
  </outline>
</glyph>
<glyph name="X" format="1">
  <advance width="671"/>
  <unicode hex="0058"/>
  <outline>
    <contour>
      <point x="306" y="714" type="line"/>
      <point x="298" y="654" type="line"/>
      <point x="233" y="654" type="line"/>
      <point x="246" y="627"/>
      <point x="277" y="566"/>
      <point x="307" y="507"/>
      <point x="334" y="455"/>
      <point x="343" y="437" type="qcurve"/>
      <point x="345" y="435"/>
      <point x="351" y="419"/>
      <point x="353" y="413" type="qcurve"/>
      <point x="357" y="419"/>
      <point x="366" y="435"/>
      <point x="368" y="437" type="qcurve"/>
      <point x="386" y="461"/>
      <point x="442" y="536"/>
      <point x="500" y="616"/>
      <point x="555" y="690"/>
      <point x="573" y="714" type="qcurve"/>
      <point x="688" y="714" type="line"/>
      <point x="680" y="654" type="line"/>
      <point x="610" y="654" type="line"/>
      <point x="584" y="619"/>
      <point x="520" y="535"/>
      <point x="458" y="453"/>
      <point x="404" y="383"/>
      <point x="389" y="363" type="qcurve"/>
      <point x="400" y="341"/>
      <point x="438" y="268"/>
      <point x="483" y="183"/>
      <point x="529" y="96"/>
      <point x="548" y="60" type="qcurve"/>
      <point x="637" y="60" type="line"/>
      <point x="629" y="0" type="line"/>
      <point x="401" y="0" type="line"/>
      <point x="408" y="60" type="line"/>
      <point x="464" y="60" type="line"/>
      <point x="363" y="256" type="line"/>
      <point x="358" y="266"/>
      <point x="341" y="303"/>
      <point x="335" y="314" type="qcurve"/>
      <point x="331" y="307"/>
      <point x="322" y="293"/>
      <point x="320" y="291" type="qcurve"/>
      <point x="301" y="266"/>
      <point x="243" y="187"/>
      <point x="181" y="103"/>
      <point x="123" y="25"/>
      <point x="104" y="0" type="qcurve"/>
      <point x="-12" y="0" type="line"/>
      <point x="-5" y="60" type="line"/>
      <point x="66" y="60" type="line"/>
      <point x="94" y="96"/>
      <point x="161" y="184"/>
      <point x="227" y="270"/>
      <point x="283" y="344"/>
      <point x="300" y="366" type="qcurve"/>
      <point x="289" y="386"/>
      <point x="253" y="455"/>
      <point x="211" y="536"/>
      <point x="167" y="619"/>
      <point x="149" y="654" type="qcurve"/>
      <point x="70" y="654" type="line"/>
      <point x="78" y="714" type="line"/>
    </contour>
  </outline>
</glyph>
<glyph name="backslash" format="1">
  <advance width="421"/>
  <unicode hex="005C"/>
  <outline>
    <contour>
      <point x="160" y="742" type="line"/>
      <point x="208" y="550"/>
      <point x="299" y="173"/>
      <point x="347" y="-19" type="qcurve"/>
      <point x="282" y="-19" type="line"/>
      <point x="234" y="173"/>
      <point x="142" y="550"/>
      <point x="95" y="742" type="qcurve"/>
    </contour>
  </outline>
</glyph>
<glyph name="t" format="1">
  <advance width="281"/>
  <unicode hex="0074"/>
  <outline>
    <contour>
      <point x="132" y="575" type="line"/>
      <point x="187" y="575" type="line"/>
      <point x="165" y="396" type="line"/>
      <point x="284" y="396" type="line"/>
      <point x="277" y="346" type="line"/>
      <point x="159" y="346" type="line"/>
      <point x="123" y="48" type="line"/>
      <point x="217" y="48" type="line"/>
      <point x="211" y="0" type="line"/>
      <point x="62" y="0" type="line"/>
      <point x="70" y="68" type="line"/>
      <point x="104" y="346" type="line"/>
      <point x="23" y="346" type="line"/>
      <point x="30" y="396" type="line"/>
      <point x="110" y="396" type="line"/>
    </contour>
  </outline>
</glyph>
<glyph name="v" format="1">
  <advance width="477"/>
  <unicode hex="0076"/>
  <outline>
    <contour>
      <point x="20" y="400" type="line"/>
      <point x="183" y="400" type="line"/>
      <point x="177" y="352" type="line"/>
      <point x="130" y="352" type="line"/>
      <point x="143" y="314"/>
      <point x="174" y="222"/>
      <point x="199" y="142"/>
      <point x="215" y="85"/>
      <point x="215" y="81" type="qcurve"/>
      <point x="216" y="85"/>
      <point x="247" y="142"/>
      <point x="292" y="222"/>
      <point x="344" y="314"/>
      <point x="367" y="352" type="qcurve"/>
      <point x="327" y="352" type="line"/>
      <point x="333" y="400" type="line"/>
      <point x="485" y="400" type="line"/>
      <point x="479" y="352" type="line"/>
      <point x="426" y="352" type="line"/>
      <point x="410" y="325"/>
      <point x="369" y="256"/>
      <point x="325" y="181"/>
      <point x="280" y="106"/>
      <point x="241" y="40"/>
      <point x="210" y="-11"/>
      <point x="202" y="-24" type="qcurve"/>
      <point x="196" y="-11"/>
      <point x="178" y="40"/>
      <point x="155" y="106"/>
      <point x="129" y="181"/>
      <point x="103" y="256"/>
      <point x="80" y="325"/>
      <point x="70" y="352" type="qcurve"/>
      <point x="14" y="352" type="line"/>
    </contour>
  </outline>
</glyph>
<glyph name="w" format="1">
  <advance width="703"/>
  <unicode hex="0077"/>
  <outline>
    <contour>
      <point x="563" y="400" type="line"/>
      <point x="622" y="400" type="line"/>
      <point x="623" y="400"/>
      <point x="623" y="401" type="qcurve"/>
      <point x="678" y="400" type="line"/>
      <point x="711" y="400" type="line"/>
      <point x="705" y="352" type="line"/>
      <point x="650" y="352" type="line"/>
      <point x="595" y="256"/>
      <point x="487" y="66"/>
      <point x="436" y="-24" type="qcurve"/>
      <point x="411" y="48"/>
      <point x="371" y="188"/>
      <point x="346" y="261" type="qcurve"/>
      <point x="306" y="188"/>
      <point x="231" y="48"/>
      <point x="191" y="-24" type="qcurve"/>
      <point x="162" y="71"/>
      <point x="102" y="257"/>
      <point x="73" y="352" type="qcurve"/>
      <point x="14" y="352" type="line"/>
      <point x="20" y="400" type="line"/>
      <point x="183" y="400" type="line"/>
      <point x="177" y="352" type="line"/>
      <point x="130" y="352" type="line"/>
      <point x="143" y="308"/>
      <point x="164" y="237"/>
      <point x="182" y="173"/>
      <point x="197" y="113"/>
      <point x="205" y="81" type="qcurve"/>
      <point x="215" y="102"/>
      <point x="238" y="146"/>
      <point x="266" y="201"/>
      <point x="303" y="270"/>
      <point x="328" y="315" type="qcurve"/>
      <point x="322" y="335"/>
      <point x="307" y="380"/>
      <point x="300" y="400" type="qcurve"/>
      <point x="349" y="400" type="line"/>
      <point x="367" y="346"/>
      <point x="396" y="244"/>
      <point x="420" y="163"/>
      <point x="440" y="113"/>
      <point x="448" y="111" type="qcurve"/>
      <point x="462" y="119"/>
      <point x="493" y="162"/>
      <point x="529" y="225"/>
      <point x="571" y="306"/>
      <point x="596" y="352" type="qcurve"/>
      <point x="557" y="352" type="line"/>
    </contour>
  </outline>
</glyph>
<glyph name="z" format="1">
  <advance width="421"/>
  <unicode hex="007A"/>
  <outline>
    <contour>
      <point x="366" y="111" type="line"/>
      <point x="355" y="18" type="line"/>
      <point x="353" y="0" type="line"/>
      <point x="-12" y="0" type="line"/>
      <point x="280" y="352" type="line"/>
      <point x="117" y="352" type="line"/>
      <point x="84" y="352"/>
      <point x="50" y="381"/>
      <point x="52" y="411" type="qcurve"/>
      <point x="55" y="438" type="line"/>
      <point x="105" y="438" type="line"/>
      <point x="104" y="425" type="line"/>
      <point x="102" y="411"/>
      <point x="117" y="400"/>
      <point x="134" y="400" type="qcurve"/>
      <point x="386" y="400" type="line"/>
      <point x="99" y="54" type="line"/>
      <point x="312" y="54" type="line"/>
      <point x="319" y="111" type="line"/>
    </contour>
  </outline>
</glyph>
<glyph name="asciitilde" format="1">
  <advance width="468"/>
  <unicode hex="007E"/>
  <outline>
    <contour>
      <point x="251" y="491" type="qcurve"/>
      <point x="237" y="508"/>
      <point x="216" y="519"/>
      <point x="202" y="519" type="qcurve"/>
      <point x="194" y="519"/>
      <point x="175" y="515"/>
      <point x="156" y="504"/>
      <point x="140" y="484"/>
      <point x="137" y="469" type="qcurve"/>
      <point x="104" y="471" type="line"/>
      <point x="107" y="491"/>
      <point x="128" y="521"/>
      <point x="156" y="542"/>
      <point x="187" y="552"/>
      <point x="202" y="552" type="qcurve"/>
      <point x="225" y="552"/>
      <point x="258" y="534"/>
      <point x="272" y="517" type="qcurve"/>
      <point x="286" y="500"/>
      <point x="308" y="489"/>
      <point x="322" y="489" type="qcurve"/>
      <point x="329" y="489"/>
      <point x="349" y="493"/>
      <point x="368" y="504"/>
      <point x="383" y="524"/>
      <point x="387" y="539" type="qcurve"/>
      <point x="420" y="537" type="line"/>
      <point x="416" y="517"/>
      <point x="396" y="487"/>
      <point x="368" y="466"/>
      <point x="336" y="456"/>
      <point x="321" y="456" type="qcurve"/>
      <point x="299" y="456"/>
      <point x="265" y="475"/>
    </contour>
  </outline>
</glyph>
<glyph name="acute" format="1">
  <advance width="256"/>
  <unicode hex="00B4"/>
  <outline>
    <contour>
      <point x="160" y="483" type="line"/>
      <point x="187" y="516"/>
      <point x="241" y="583"/>
      <point x="267" y="617" type="qcurve"/>
      <point x="327" y="617" type="line"/>
      <point x="204" y="483" type="line"/>
    </contour>
  </outline>
</glyph>
<glyph name="paragraph" format="1">
  <advance width="541"/>
  <unicode hex="00B6"/>
  <outline>
    <contour>
      <point x="226" y="0" type="line"/>
      <point x="168" y="0" type="line"/>
      <point x="220" y="426" type="line"/>
      <point x="188" y="426"/>
      <point x="135" y="449"/>
      <point x="96" y="489"/>
      <point x="75" y="543"/>
      <point x="75" y="574" type="qcurve"/>
      <point x="75" y="611"/>
      <point x="105" y="678"/>
      <point x="156" y="727"/>
      <point x="223" y="756"/>
      <point x="260" y="756" type="qcurve"/>
      <point x="483" y="756" type="line"/>
      <point x="390" y="0" type="line"/>
      <point x="332" y="0" type="line"/>
      <point x="418" y="699" type="line"/>
      <point x="312" y="699" type="line"/>
    </contour>
  </outline>
</glyph>
<glyph name="onesuperior" format="1">
  <advance width="185"/>
  <unicode hex="00B9"/>
  <outline>
    <contour>
      <point x="95" y="676" type="line"/>
      <point x="98" y="702" type="line"/>
      <point x="164" y="702" type="line"/>
      <point x="127" y="401" type="line"/>
      <point x="100" y="401" type="line"/>
      <point x="134" y="676" type="line"/>
    </contour>
  </outline>
</glyph>
<glyph name="guillemotright" format="1">
  <advance width="453"/>
  <unicode hex="00BB"/>
  <outline>
    <contour>
      <point x="46" y="128" type="line"/>
      <point x="58" y="139"/>
      <point x="88" y="169"/>
      <point x="119" y="201"/>
      <point x="150" y="230"/>
      <point x="162" y="241" type="qcurve"/>
      <point x="153" y="252"/>
      <point x="130" y="281"/>
      <point x="106" y="313"/>
      <point x="83" y="342"/>
      <point x="74" y="353" type="qcurve"/>
      <point x="82" y="419" type="line"/>
      <point x="93" y="407"/>
      <point x="134" y="357"/>
      <point x="179" y="303"/>
      <point x="221" y="253"/>
      <point x="232" y="241" type="qcurve"/>
      <point x="38" y="62" type="line"/>
    </contour>
    <contour>
      <point x="218" y="128" type="line"/>
      <point x="230" y="139"/>
      <point x="260" y="169"/>
      <point x="292" y="201"/>
      <point x="322" y="230"/>
      <point x="334" y="241" type="qcurve"/>
      <point x="325" y="252"/>
      <point x="302" y="281"/>
      <point x="278" y="312"/>
      <point x="255" y="341"/>
      <point x="246" y="352" type="qcurve"/>
      <point x="254" y="419" type="line"/>
      <point x="265" y="407"/>
      <point x="306" y="357"/>
      <point x="351" y="303"/>
      <point x="393" y="253"/>
      <point x="404" y="241" type="qcurve"/>
      <point x="210" y="62" type="line"/>
    </contour>
  </outline>
</glyph>
<glyph name="threequarters" format="1">
  <advance width="988"/>
  <unicode hex="00BE"/>
  <outline>
    <contour>
      <point x="913" y="42" type="line"/>
      <point x="909" y="0" type="line"/>
      <point x="738" y="0" type="line"/>
      <point x="743" y="42" type="line"/>
      <point x="804" y="42" type="line"/>
      <point x="816" y="130" type="line"/>
      <point x="575" y="130" type="line"/>
      <point x="655" y="220"/>
      <point x="824" y="404"/>
      <point x="903" y="494" type="qcurve"/>
      <point x="865" y="173" type="line"/>
      <point x="937" y="173" type="line"/>
      <point x="932" y="130" type="line"/>
      <point x="859" y="130" type="line"/>
      <point x="848" y="42" type="line"/>
    </contour>
    <contour>
      <point x="108" y="624" type="line"/>
      <point x="113" y="668" type="line"/>
      <point x="119" y="712" type="line"/>
      <point x="378" y="712" type="line"/>
      <point x="340" y="664"/>
      <point x="263" y="571"/>
      <point x="225" y="523" type="qcurve"/>
      <point x="277" y="514"/>
      <point x="343" y="437"/>
      <point x="343" y="382" type="qcurve"/>
      <point x="343" y="345"/>
      <point x="312" y="279"/>
      <point x="260" y="229"/>
      <point x="192" y="200"/>
      <point x="156" y="200" type="qcurve"/>
      <point x="120" y="200"/>
      <point x="61" y="229"/>
      <point x="41" y="254" type="qcurve"/>
      <point x="78" y="286" type="line"/>
      <point x="92" y="266"/>
      <point x="134" y="244"/>
      <point x="161" y="244" type="qcurve"/>
      <point x="188" y="244"/>
      <point x="237" y="266"/>
      <point x="275" y="302"/>
      <point x="298" y="350"/>
      <point x="298" y="377" type="qcurve"/>
      <point x="298" y="399"/>
      <point x="282" y="439"/>
      <point x="253" y="468"/>
      <point x="213" y="485"/>
      <point x="190" y="485" type="qcurve"/>
      <point x="161" y="485"/>
      <point x="139" y="469" type="qcurve"/>
      <point x="177" y="520"/>
      <point x="260" y="618"/>
      <point x="298" y="668" type="qcurve"/>
      <point x="157" y="668" type="line"/>
      <point x="151" y="624" type="line"/>
    </contour>
    <contour>
      <point x="321" y="-19" type="line"/>
      <point x="695" y="742" type="line"/>
      <point x="754" y="742" type="line"/>
      <point x="380" y="-19" type="line"/>
    </contour>
    <contour>
      <point x="845" y="375" type="line"/>
      <point x="666" y="173" type="line"/>
      <point x="821" y="173" type="line"/>
    </contour>
  </outline>
</glyph>
<glyph name="Adieresis" format="1">
  <advance width="735"/>
  <unicode hex="00C4"/>
  <outline>
    <contour>
      <point x="-23" y="60" type="line"/>
      <point x="-31" y="0" type="line"/>
      <point x="197" y="0" type="line"/>
      <point x="205" y="60" type="line"/>
      <point x="124" y="60" type="line"/>
      <point x="227" y="255" type="line"/>
      <point x="501" y="255" type="line"/>
      <point x="556" y="60" type="line"/>
      <point x="478" y="60" type="line"/>
      <point x="471" y="0" type="line"/>
      <point x="699" y="0" type="line"/>
      <point x="707" y="60" type="line"/>
      <point x="624" y="60" type="line"/>
      <point x="425" y="747" type="line"/>
      <point x="57" y="60" type="line"/>
    </contour>
    <contour>
      <point x="394" y="572" type="line"/>
      <point x="396" y="578"/>
      <point x="399" y="583" type="qcurve"/>
      <point x="401" y="588"/>
      <point x="405" y="598"/>
      <point x="407" y="603" type="qcurve"/>
      <point x="408" y="598"/>
      <point x="410" y="588"/>
      <point x="411" y="583" type="qcurve"/>
      <point x="412" y="578"/>
      <point x="413" y="572" type="qcurve"/>
      <point x="485" y="314" type="line"/>
      <point x="258" y="314" type="line"/>
    </contour>
    <contour>
      <point x="303" y="809" type="qcurve"/>
      <point x="303" y="828"/>
      <point x="332" y="854"/>
      <point x="349" y="854" type="qcurve"/>
      <point x="363" y="854"/>
      <point x="384" y="833"/>
      <point x="384" y="817" type="qcurve"/>
      <point x="384" y="797"/>
      <point x="355" y="772"/>
      <point x="339" y="772" type="qcurve"/>
      <point x="324" y="772"/>
      <point x="303" y="792"/>
    </contour>
    <contour>
      <point x="482" y="809" type="qcurve"/>
      <point x="482" y="828"/>
      <point x="511" y="854"/>
      <point x="528" y="854" type="qcurve"/>
      <point x="542" y="854"/>
      <point x="563" y="833"/>
      <point x="563" y="817" type="qcurve"/>
      <point x="563" y="797"/>
      <point x="534" y="772"/>
      <point x="518" y="772" type="qcurve"/>
      <point x="504" y="772"/>
      <point x="482" y="792"/>
    </contour>
  </outline>
</glyph>
<glyph name="Icircumflex" format="1">
  <advance width="336"/>
  <unicode hex="00CE"/>
  <outline>
    <contour>
      <point x="337" y="714" type="line"/>
      <point x="329" y="654" type="line"/>
      <point x="248" y="654" type="line"/>
      <point x="175" y="60" type="line"/>
      <point x="257" y="60" type="line"/>
      <point x="249" y="0" type="line"/>
      <point x="21" y="0" type="line"/>
      <point x="29" y="60" type="line"/>
      <point x="107" y="60" type="line"/>
      <point x="179" y="654" type="line"/>
      <point x="101" y="654" type="line"/>
      <point x="109" y="714" type="line"/>
    </contour>
    <contour>
      <point x="244" y="891" type="qcurve"/>
      <point x="269" y="860"/>
      <point x="290" y="833" type="qcurve"/>
      <point x="308" y="810"/>
      <point x="342" y="765"/>
      <point x="348" y="757" type="qcurve"/>
      <point x="305" y="757" type="line"/>
      <point x="236" y="827" type="line"/>
      <point x="150" y="757" type="line"/>
      <point x="106" y="757" type="line"/>
      <point x="114" y="765"/>
      <point x="159" y="809"/>
      <point x="183" y="832" type="qcurve"/>
      <point x="211" y="859"/>
    </contour>
  </outline>
</glyph>
<glyph name="Ograve" format="1">
  <advance width="828"/>
  <unicode hex="00D2"/>
  <outline>
    <contour>
      <point x="58" y="356" type="qcurve"/>
      <point x="67" y="431"/>
      <point x="141" y="564"/>
      <point x="252" y="664"/>
      <point x="392" y="722"/>
      <point x="467" y="722" type="qcurve"/>
      <point x="537" y="722"/>
      <point x="656" y="670"/>
      <point x="743" y="581"/>
      <point x="792" y="461"/>
      <point x="792" y="392" type="qcurve"/>
      <point x="792" y="310"/>
      <point x="723" y="165"/>
      <point x="609" y="56"/>
      <point x="459" y="-8"/>
      <point x="378" y="-8" type="qcurve"/>
      <point x="303" y="-8"/>
      <point x="177" y="49"/>
      <point x="90" y="148"/>
      <point x="49" y="281"/>
    </contour>
    <contour>
      <point x="127" y="356" type="qcurve"/>
      <point x="119" y="294"/>
      <point x="153" y="185"/>
      <point x="223" y="104"/>
      <point x="325" y="57"/>
      <point x="386" y="57" type="qcurve"/>
      <point x="452" y="57"/>
      <point x="574" y="109"/>
      <point x="667" y="199"/>
      <point x="723" y="319"/>
      <point x="723" y="386" type="qcurve"/>
      <point x="723" y="442"/>
      <point x="683" y="541"/>
      <point x="613" y="614"/>
      <point x="517" y="656"/>
      <point x="460" y="656" type="qcurve"/>
      <point x="398" y="656"/>
      <point x="285" y="609"/>
      <point x="194" y="527"/>
      <point x="134" y="418"/>
    </contour>
    <contour>
      <point x="474" y="897" type="line"/>
      <point x="493" y="863"/>
      <point x="529" y="796"/>
      <point x="548" y="763" type="qcurve"/>
      <point x="505" y="763" type="line"/>
      <point x="482" y="796"/>
      <point x="437" y="863"/>
      <point x="414" y="897" type="qcurve"/>
    </contour>
  </outline>
</glyph>
<glyph name="Oslash" format="1">
  <advance width="827"/>
  <unicode hex="00D8"/>
  <outline>
    <contour>
      <point x="57" y="356" type="qcurve"/>
      <point x="66" y="431"/>
      <point x="140" y="564"/>
      <point x="251" y="664"/>
      <point x="391" y="722"/>
      <point x="466" y="722" type="qcurve"/>
      <point x="525" y="722"/>
      <point x="627" y="685"/>
      <point x="669" y="652" type="qcurve"/>
      <point x="689" y="672"/>
      <point x="726" y="710"/>
      <point x="740" y="725" type="qcurve"/>
      <point x="769" y="695" type="line"/>
      <point x="700" y="624" type="line"/>
      <point x="743" y="579"/>
      <point x="791" y="460"/>
      <point x="791" y="392" type="qcurve"/>
      <point x="791" y="310"/>
      <point x="722" y="165"/>
      <point x="608" y="56"/>
      <point x="458" y="-8"/>
      <point x="377" y="-8" type="qcurve"/>
      <point x="313" y="-8"/>
      <point x="204" y="32"/>
      <point x="162" y="69" type="qcurve"/>
      <point x="86" y="-9" type="line"/>
      <point x="56" y="21" type="line"/>
      <point x="132" y="99" type="line"/>
      <point x="88" y="149"/>
      <point x="48" y="281"/>
    </contour>
    <contour>
      <point x="211" y="120" type="line"/>
      <point x="246" y="90"/>
      <point x="333" y="57"/>
      <point x="385" y="57" type="qcurve"/>
      <point x="451" y="57"/>
      <point x="573" y="109"/>
      <point x="666" y="199"/>
      <point x="722" y="319"/>
      <point x="722" y="386" type="qcurve"/>
      <point x="722" y="441"/>
      <point x="684" y="537"/>
      <point x="650" y="573" type="qcurve"/>
    </contour>
    <contour>
      <point x="126" y="356" type="qcurve"/>
      <point x="118" y="296"/>
      <point x="149" y="191"/>
      <point x="182" y="150" type="qcurve"/>
      <point x="231" y="201"/>
      <point x="344" y="317"/>
      <point x="459" y="436"/>
      <point x="571" y="551"/>
      <point x="620" y="601" type="qcurve"/>
      <point x="587" y="627"/>
      <point x="506" y="656"/>
      <point x="459" y="656" type="qcurve"/>
      <point x="397" y="656"/>
      <point x="284" y="609"/>
      <point x="193" y="527"/>
      <point x="133" y="418"/>
    </contour>
  </outline>
</glyph>
<glyph name="idieresis" format="1">
  <advance width="250"/>
  <unicode hex="00EF"/>
  <outline>
    <contour>
      <point x="131" y="67" type="line"/>
      <point x="128" y="48" type="line"/>
      <point x="201" y="48" type="line"/>
      <point x="195" y="0" type="line"/>
      <point x="-1" y="0" type="line"/>
      <point x="5" y="48" type="line"/>
      <point x="73" y="48" type="line"/>
      <point x="111" y="351" type="line"/>
      <point x="42" y="351" type="line"/>
      <point x="49" y="400" type="line"/>
      <point x="171" y="400" type="line"/>
      <point x="165" y="351" type="line"/>
      <point x="130" y="67" type="line"/>
    </contour>
    <contour>
      <point x="27" y="513" type="qcurve"/>
      <point x="27" y="532"/>
      <point x="56" y="558"/>
      <point x="73" y="558" type="qcurve"/>
      <point x="87" y="558"/>
      <point x="108" y="537"/>
      <point x="108" y="521" type="qcurve"/>
      <point x="108" y="501"/>
      <point x="79" y="476"/>
      <point x="63" y="476" type="qcurve"/>
      <point x="48" y="476"/>
      <point x="27" y="496"/>
    </contour>
    <contour>
      <point x="206" y="513" type="qcurve"/>
      <point x="206" y="532"/>
      <point x="235" y="558"/>
      <point x="252" y="558" type="qcurve"/>
      <point x="266" y="558"/>
      <point x="287" y="537"/>
      <point x="287" y="521" type="qcurve"/>
      <point x="287" y="501"/>
      <point x="258" y="476"/>
      <point x="242" y="476" type="qcurve"/>
      <point x="228" y="476"/>
      <point x="206" y="496"/>
    </contour>
  </outline>
</glyph>
<glyph name="ntilde" format="1">
  <advance width="538"/>
  <unicode hex="00F1"/>
  <outline>
    <contour>
      <point x="130" y="67" type="line"/>
      <point x="127" y="48" type="line"/>
      <point x="200" y="48" type="line"/>
      <point x="194" y="0" type="line"/>
      <point x="-2" y="0" type="line"/>
      <point x="4" y="48" type="line"/>
      <point x="72" y="48" type="line"/>
      <point x="110" y="351" type="line"/>
      <point x="41" y="351" type="line"/>
      <point x="48" y="400" type="line"/>
      <point x="162" y="400" type="line"/>
      <point x="155" y="297" type="line"/>
      <point x="183" y="347"/>
      <point x="276" y="409"/>
      <point x="336" y="409" type="qcurve"/>
      <point x="395" y="409"/>
      <point x="456" y="343"/>
      <point x="451" y="289" type="qcurve"/>
      <point x="425" y="74" type="line"/>
      <point x="422" y="48" type="line"/>
      <point x="490" y="48" type="line"/>
      <point x="484" y="0" type="line"/>
      <point x="290" y="0" type="line"/>
      <point x="296" y="48" type="line"/>
      <point x="367" y="48" type="line"/>
      <point x="370" y="72" type="line"/>
      <point x="394" y="270" type="line"/>
      <point x="397" y="304"/>
      <point x="358" y="352"/>
      <point x="315" y="354" type="qcurve"/>
      <point x="283" y="354"/>
      <point x="226" y="333"/>
      <point x="181" y="295"/>
      <point x="151" y="243"/>
      <point x="147" y="212" type="qcurve"/>
      <point x="129" y="67" type="line"/>
    </contour>
    <contour>
      <point x="297" y="499" type="qcurve"/>
      <point x="283" y="516"/>
      <point x="262" y="527"/>
      <point x="248" y="527" type="qcurve"/>
      <point x="240" y="527"/>
      <point x="221" y="523"/>
      <point x="202" y="512"/>
      <point x="186" y="492"/>
      <point x="183" y="477" type="qcurve"/>
      <point x="150" y="479" type="line"/>
      <point x="153" y="499"/>
      <point x="174" y="529"/>
      <point x="202" y="550"/>
      <point x="233" y="560"/>
      <point x="248" y="560" type="qcurve"/>
      <point x="271" y="560"/>
      <point x="304" y="542"/>
      <point x="318" y="525" type="qcurve"/>
      <point x="332" y="508"/>
      <point x="354" y="497"/>
      <point x="368" y="497" type="qcurve"/>
      <point x="375" y="497"/>
      <point x="395" y="501"/>
      <point x="414" y="512"/>
      <point x="429" y="532"/>
      <point x="433" y="547" type="qcurve"/>
      <point x="466" y="545" type="line"/>
      <point x="462" y="525"/>
      <point x="442" y="495"/>
      <point x="414" y="474"/>
      <point x="382" y="464"/>
      <point x="367" y="464" type="qcurve"/>
      <point x="345" y="464"/>
      <point x="311" y="483"/>
    </contour>
  </outline>
</glyph>
<glyph name="Abreve" format="1">
  <advance width="735"/>
  <unicode hex="0102"/>
  <outline>
    <contour>
      <point x="-23" y="60" type="line"/>
      <point x="-31" y="0" type="line"/>
      <point x="197" y="0" type="line"/>
      <point x="205" y="60" type="line"/>
      <point x="124" y="60" type="line"/>
      <point x="227" y="255" type="line"/>
      <point x="501" y="255" type="line"/>
      <point x="556" y="60" type="line"/>
      <point x="478" y="60" type="line"/>
      <point x="471" y="0" type="line"/>
      <point x="699" y="0" type="line"/>
      <point x="707" y="60" type="line"/>
      <point x="624" y="60" type="line"/>
      <point x="425" y="747" type="line"/>
      <point x="57" y="60" type="line"/>
    </contour>
    <contour>
      <point x="394" y="572" type="line"/>
      <point x="396" y="578"/>
      <point x="399" y="583" type="qcurve"/>
      <point x="401" y="588"/>
      <point x="405" y="598"/>
      <point x="407" y="603" type="qcurve"/>
      <point x="408" y="598"/>
      <point x="410" y="588"/>
      <point x="411" y="583" type="qcurve"/>
      <point x="412" y="578"/>
      <point x="413" y="572" type="qcurve"/>
      <point x="485" y="314" type="line"/>
      <point x="258" y="314" type="line"/>
    </contour>
    <contour>
      <point x="427" y="755" type="qcurve"/>
      <point x="394" y="755"/>
      <point x="338" y="779"/>
      <point x="299" y="821"/>
      <point x="280" y="879"/>
      <point x="283" y="912" type="qcurve"/>
      <point x="317" y="912" type="line"/>
      <point x="315" y="886"/>
      <point x="329" y="842"/>
      <point x="359" y="808"/>
      <point x="403" y="789"/>
      <point x="430" y="789" type="qcurve"/>
      <point x="458" y="789"/>
      <point x="506" y="808"/>
      <point x="544" y="842"/>
      <point x="568" y="886"/>
      <point x="572" y="912" type="qcurve"/>
      <point x="607" y="912" type="line"/>
      <point x="603" y="879"/>
      <point x="570" y="821"/>
      <point x="521" y="779"/>
      <point x="460" y="755"/>
    </contour>
  </outline>
</glyph>
<glyph name="abreve" format="1">
  <advance width="552"/>
  <unicode hex="0103"/>
  <outline>
    <contour>
      <point x="432" y="48" type="line"/>
      <point x="500" y="48" type="line"/>
      <point x="494" y="0" type="line"/>
      <point x="371" y="0" type="line"/>
      <point x="376" y="41" type="line"/>
      <point x="381" y="81" type="line"/>
      <point x="372" y="64"/>
      <point x="340" y="33"/>
      <point x="296" y="7"/>
      <point x="243" y="-8"/>
      <point x="212" y="-8" type="qcurve"/>
      <point x="170" y="-8"/>
      <point x="102" y="21"/>
      <point x="54" y="71"/>
      <point x="27" y="139"/>
      <point x="27" y="177" type="qcurve"/>
      <point x="27" y="224"/>
      <point x="66" y="308"/>
      <point x="131" y="372"/>
      <point x="216" y="409"/>
      <point x="262" y="409" type="qcurve"/>
      <point x="293" y="409"/>
      <point x="343" y="393"/>
      <point x="381" y="366"/>
      <point x="405" y="333"/>
      <point x="410" y="317" type="qcurve"/>
      <point x="413" y="337"/>
      <point x="420" y="379"/>
      <point x="424" y="400" type="qcurve"/>
      <point x="475" y="400" type="line"/>
    </contour>
    <contour>
      <point x="82" y="184" type="qcurve"/>
      <point x="82" y="155"/>
      <point x="102" y="104"/>
      <point x="139" y="67"/>
      <point x="190" y="46"/>
      <point x="220" y="46" type="qcurve"/>
      <point x="256" y="46"/>
      <point x="320" y="73"/>
      <point x="368" y="119"/>
      <point x="396" y="182"/>
      <point x="396" y="217" type="qcurve"/>
      <point x="396" y="246"/>
      <point x="376" y="297"/>
      <point x="339" y="334"/>
      <point x="288" y="355"/>
      <point x="257" y="355" type="qcurve"/>
      <point x="221" y="355"/>
      <point x="158" y="328"/>
      <point x="110" y="282"/>
      <point x="82" y="220"/>
    </contour>
    <contour>
      <point x="295" y="500" type="qcurve"/>
      <point x="262" y="500"/>
      <point x="206" y="524"/>
      <point x="167" y="566"/>
      <point x="148" y="624"/>
      <point x="151" y="657" type="qcurve"/>
      <point x="185" y="657" type="line"/>
      <point x="183" y="631"/>
      <point x="197" y="587"/>
      <point x="227" y="553"/>
      <point x="271" y="534"/>
      <point x="298" y="534" type="qcurve"/>
      <point x="326" y="534"/>
      <point x="374" y="553"/>
      <point x="412" y="587"/>
      <point x="436" y="631"/>
      <point x="440" y="657" type="qcurve"/>
      <point x="475" y="657" type="line"/>
      <point x="471" y="624"/>
      <point x="438" y="566"/>
      <point x="389" y="524"/>
      <point x="328" y="500"/>
    </contour>
  </outline>
</glyph>
<glyph name="Aogonek" format="1">
  <advance width="735"/>
  <unicode hex="0104"/>
  <outline>
    <contour>
      <point x="57" y="60" type="line"/>
      <point x="425" y="747" type="line"/>
      <point x="624" y="60" type="line"/>
      <point x="707" y="60" type="line"/>
      <point x="699" y="0" type="line"/>
      <point x="613" y="0" type="line"/>
      <point x="609" y="-28" type="line"/>
      <point x="607" y="-47"/>
      <point x="578" y="-67"/>
      <point x="546" y="-88"/>
      <point x="520" y="-116"/>
      <point x="520" y="-143" type="qcurve"/>
      <point x="520" y="-166"/>
      <point x="547" y="-197"/>
      <point x="571" y="-197" type="qcurve"/>
      <point x="593" y="-197"/>
      <point x="625" y="-174"/>
      <point x="633" y="-156" type="qcurve"/>
      <point x="641" y="-160"/>
      <point x="658" y="-168"/>
      <point x="666" y="-173" type="qcurve"/>
      <point x="650" y="-208"/>
      <point x="592" y="-242"/>
      <point x="561" y="-242" type="qcurve"/>
      <point x="520" y="-242"/>
      <point x="475" y="-192"/>
      <point x="475" y="-151" type="qcurve"/>
      <point x="475" y="-127"/>
      <point x="496" y="-81"/>
      <point x="525" y="-61" type="qcurve"/>
      <point x="532" y="-57"/>
      <point x="547" y="-49"/>
      <point x="561" y="-38"/>
      <point x="572" y="-21"/>
      <point x="574" y="-7" type="qcurve"/>
      <point x="575" y="0" type="line"/>
      <point x="471" y="0" type="line"/>
      <point x="478" y="60" type="line"/>
      <point x="556" y="60" type="line"/>
      <point x="501" y="255" type="line"/>
      <point x="227" y="255" type="line"/>
      <point x="124" y="60" type="line"/>
      <point x="205" y="60" type="line"/>
      <point x="197" y="0" type="line"/>
      <point x="-31" y="0" type="line"/>
      <point x="-23" y="60" type="line"/>
    </contour>
    <contour>
      <point x="258" y="314" type="line"/>
      <point x="485" y="314" type="line"/>
      <point x="413" y="572" type="line"/>
      <point x="412" y="578"/>
      <point x="411" y="583" type="qcurve"/>
      <point x="410" y="588"/>
      <point x="408" y="598"/>
      <point x="407" y="603" type="qcurve"/>
      <point x="405" y="598"/>
      <point x="401" y="588"/>
      <point x="399" y="583" type="qcurve"/>
      <point x="396" y="578"/>
      <point x="394" y="572" type="qcurve"/>
    </contour>
  </outline>
</glyph>
<glyph name="Ecaron" format="1">
  <advance width="647"/>
  <unicode hex="011A"/>
  <outline>
    <contour>
      <point x="556" y="580" type="line"/>
      <point x="564" y="652" type="line"/>
      <point x="248" y="652" type="line"/>
      <point x="216" y="391" type="line"/>
      <point x="558" y="391" type="line"/>
      <point x="550" y="327" type="line"/>
      <point x="208" y="327" type="line"/>
      <point x="176" y="64" type="line"/>
      <point x="507" y="64" type="line"/>
      <point x="516" y="140" type="line"/>
      <point x="581" y="140" type="line"/>
      <point x="567" y="33" type="line"/>
      <point x="563" y="0" type="line"/>
      <point x="22" y="0" type="line"/>
      <point x="30" y="60" type="line"/>
      <point x="107" y="60" type="line"/>
      <point x="179" y="654" type="line"/>
      <point x="102" y="654" type="line"/>
      <point x="110" y="714" type="line"/>
      <point x="637" y="714" type="line"/>
      <point x="632" y="679" type="line"/>
      <point x="633" y="679" type="line"/>
      <point x="620" y="580" type="line"/>
    </contour>
    <contour>
      <point x="405" y="757" type="qcurve"/>
      <point x="380" y="789"/>
      <point x="359" y="816" type="qcurve"/>
      <point x="341" y="839"/>
      <point x="306" y="883"/>
      <point x="301" y="891" type="qcurve"/>
      <point x="344" y="891" type="line"/>
      <point x="413" y="821" type="line"/>
      <point x="499" y="891" type="line"/>
      <point x="543" y="891" type="line"/>
      <point x="535" y="882"/>
      <point x="490" y="838"/>
      <point x="466" y="815" type="qcurve"/>
      <point x="438" y="788"/>
    </contour>
  </outline>
</glyph>
<glyph name="Hcircumflex" format="1">
  <advance width="811"/>
  <unicode hex="0124"/>
  <outline>
    <contour>
      <point x="338" y="714" type="line"/>
      <point x="330" y="654" type="line"/>
      <point x="248" y="654" type="line"/>
      <point x="217" y="392" type="line"/>
      <point x="623" y="392" type="line"/>
      <point x="654" y="654" type="line"/>
      <point x="573" y="654" type="line"/>
      <point x="580" y="714" type="line"/>
      <point x="809" y="714" type="line"/>
      <point x="801" y="654" type="line"/>
      <point x="723" y="654" type="line"/>
      <point x="650" y="60" type="line"/>
      <point x="729" y="60" type="line"/>
      <point x="721" y="0" type="line"/>
      <point x="493" y="0" type="line"/>
      <point x="500" y="60" type="line"/>
      <point x="582" y="60" type="line"/>
      <point x="615" y="327" type="line"/>
      <point x="209" y="327" type="line"/>
      <point x="176" y="60" type="line"/>
      <point x="258" y="60" type="line"/>
      <point x="250" y="0" type="line"/>
      <point x="22" y="0" type="line"/>
      <point x="30" y="60" type="line"/>
      <point x="107" y="60" type="line"/>
      <point x="180" y="654" type="line"/>
      <point x="102" y="654" type="line"/>
      <point x="110" y="714" type="line"/>
    </contour>
    <contour>
      <point x="485" y="889" type="qcurve"/>
      <point x="510" y="858"/>
      <point x="531" y="831" type="qcurve"/>
      <point x="549" y="808"/>
      <point x="583" y="763"/>
      <point x="589" y="755" type="qcurve"/>
      <point x="546" y="755" type="line"/>
      <point x="477" y="825" type="line"/>
      <point x="391" y="755" type="line"/>
      <point x="347" y="755" type="line"/>
      <point x="355" y="763"/>
      <point x="400" y="807"/>
      <point x="424" y="830" type="qcurve"/>
      <point x="452" y="857"/>
    </contour>
  </outline>
</glyph>
<glyph name="imacron" format="1">
  <advance width="250"/>
  <unicode hex="012B"/>
  <outline>
    <contour>
      <point x="131" y="67" type="line"/>
      <point x="128" y="48" type="line"/>
      <point x="201" y="48" type="line"/>
      <point x="195" y="0" type="line"/>
      <point x="-1" y="0" type="line"/>
      <point x="5" y="48" type="line"/>
      <point x="73" y="48" type="line"/>
      <point x="111" y="351" type="line"/>
      <point x="42" y="351" type="line"/>
      <point x="49" y="400" type="line"/>
      <point x="171" y="400" type="line"/>
      <point x="165" y="351" type="line"/>
      <point x="130" y="67" type="line"/>
    </contour>
    <contour>
      <point x="39" y="487" type="line"/>
      <point x="44" y="526" type="line"/>
      <point x="276" y="526" type="line"/>
      <point x="271" y="487" type="line"/>
    </contour>
  </outline>
</glyph>
<glyph name="Jcircumflex" format="1">
  <advance width="325"/>
  <unicode hex="0134"/>
  <outline>
    <contour>
      <point x="275" y="714" type="line"/>
      <point x="268" y="654" type="line"/>
      <point x="267" y="654" type="line"/>
      <point x="202" y="116" type="line"/>
      <point x="194" y="54"/>
      <point x="147" y="-43"/>
      <point x="76" y="-109"/>
      <point x="-14" y="-145"/>
      <point x="-63" y="-146" type="qcurve"/>
      <point x="-55" y="-82" type="line"/>
      <point x="17" y="-78"/>
      <point x="122" y="22"/>
      <point x="134" y="119" type="qcurve"/>
      <point x="199" y="654" type="line"/>
      <point x="96" y="654" type="line"/>
      <point x="103" y="714" type="line"/>
    </contour>
    <contour>
      <point x="226" y="889" type="qcurve"/>
      <point x="251" y="858"/>
      <point x="272" y="831" type="qcurve"/>
      <point x="290" y="808"/>
      <point x="324" y="763"/>
      <point x="330" y="755" type="qcurve"/>
      <point x="287" y="755" type="line"/>
      <point x="218" y="825" type="line"/>
      <point x="132" y="755" type="line"/>
      <point x="88" y="755" type="line"/>
      <point x="96" y="763"/>
      <point x="141" y="807"/>
      <point x="165" y="830" type="qcurve"/>
      <point x="193" y="857"/>
    </contour>
  </outline>
</glyph>
<glyph name="jcircumflex" format="1">
  <advance width="213"/>
  <unicode hex="0135"/>
  <outline>
    <contour>
      <point x="5" y="-192" type="qcurve"/>
      <point x="-12" y="-173"/>
      <point x="-29" y="-152" type="qcurve"/>
      <point x="1" y="-126"/>
      <point x="42" y="-53"/>
      <point x="47" y="-3" type="qcurve"/>
      <point x="91" y="351" type="line"/>
      <point x="23" y="351" type="line"/>
      <point x="29" y="400" type="line"/>
      <point x="151" y="400" type="line"/>
      <point x="145" y="351" type="line"/>
      <point x="102" y="-3" type="line"/>
      <point x="94" y="-66"/>
      <point x="43" y="-161"/>
    </contour>
    <contour>
      <point x="143" y="665" type="qcurve"/>
      <point x="242" y="483" type="line"/>
      <point x="199" y="483" type="line"/>
      <point x="135" y="593" type="line"/>
      <point x="126" y="582"/>
      <point x="102" y="553"/>
      <point x="77" y="523"/>
      <point x="53" y="495"/>
      <point x="44" y="483" type="qcurve"/>
      <point x="0" y="483" type="line"/>
      <point x="36" y="528"/>
      <point x="108" y="620"/>
    </contour>
  </outline>
</glyph>
<glyph name="lacute" format="1">
  <advance width="240"/>
  <unicode hex="013A"/>
  <outline>
    <contour>
      <point x="121" y="67" type="line"/>
      <point x="118" y="48" type="line"/>
      <point x="191" y="48" type="line"/>
      <point x="185" y="0" type="line"/>
      <point x="-11" y="0" type="line"/>
      <point x="-5" y="48" type="line"/>
      <point x="63" y="48" type="line"/>
      <point x="145" y="717" type="line"/>
      <point x="77" y="717" type="line"/>
      <point x="83" y="766" type="line"/>
      <point x="206" y="766" type="line"/>
      <point x="120" y="67" type="line"/>
    </contour>
    <contour>
      <point x="136" y="784" type="line"/>
      <point x="163" y="817"/>
      <point x="217" y="884"/>
      <point x="243" y="918" type="qcurve"/>
      <point x="303" y="918" type="line"/>
      <point x="180" y="784" type="line"/>
    </contour>
  </outline>
</glyph>
<glyph name="lcaron" format="1">
  <advance width="240"/>
  <unicode hex="013E"/>
  <outline>
    <contour>
      <point x="121" y="67" type="line"/>
      <point x="118" y="48" type="line"/>
      <point x="191" y="48" type="line"/>
      <point x="185" y="0" type="line"/>
      <point x="-11" y="0" type="line"/>
      <point x="-5" y="48" type="line"/>
      <point x="63" y="48" type="line"/>
      <point x="145" y="717" type="line"/>
      <point x="77" y="717" type="line"/>
      <point x="83" y="766" type="line"/>
      <point x="206" y="766" type="line"/>
      <point x="120" y="67" type="line"/>
    </contour>
    <contour>
      <point x="261" y="573" type="qcurve"/>
      <point x="235" y="595" type="line"/>
      <point x="259" y="615"/>
      <point x="285" y="675"/>
      <point x="282" y="710" type="qcurve"/>
      <point x="324" y="717" type="line"/>
      <point x="327" y="675"/>
      <point x="293" y="600"/>
    </contour>
  </outline>
</glyph>
<glyph name="Lslash" format="1">
  <advance width="608"/>
  <unicode hex="0141"/>
  <outline>
    <contour>
      <point x="340" y="714" type="line"/>
      <point x="332" y="654" type="line"/>
      <point x="250" y="654" type="line"/>
      <point x="216" y="379" type="line"/>
      <point x="385" y="434" type="line"/>
      <point x="378" y="377" type="line"/>
      <point x="209" y="322" type="line"/>
      <point x="178" y="65" type="line"/>
      <point x="499" y="65" type="line"/>
      <point x="508" y="140" type="line"/>
      <point x="573" y="140" type="line"/>
      <point x="559" y="33" type="line"/>
      <point x="553" y="33" type="line"/>
      <point x="549" y="0" type="line"/>
      <point x="24" y="0" type="line"/>
      <point x="32" y="60" type="line"/>
      <point x="109" y="60" type="line"/>
      <point x="138" y="299" type="line"/>
      <point x="58" y="273" type="line"/>
      <point x="65" y="330" type="line"/>
      <point x="145" y="356" type="line"/>
      <point x="181" y="654" type="line"/>
      <point x="104" y="654" type="line"/>
      <point x="112" y="714" type="line"/>
    </contour>
  </outline>
</glyph>
<glyph name="lslash" format="1">
  <advance width="242"/>
  <unicode hex="0142"/>
  <outline>
    <contour>
      <point x="123" y="67" type="line"/>
      <point x="120" y="48" type="line"/>
      <point x="193" y="48" type="line"/>
      <point x="187" y="0" type="line"/>
      <point x="-9" y="0" type="line"/>
      <point x="-3" y="48" type="line"/>
      <point x="65" y="48" type="line"/>
      <point x="93" y="282" type="line"/>
      <point x="22" y="259" type="line"/>
      <point x="30" y="315" type="line"/>
      <point x="100" y="338" type="line"/>
      <point x="147" y="717" type="line"/>
      <point x="79" y="717" type="line"/>
      <point x="85" y="766" type="line"/>
      <point x="208" y="766" type="line"/>
      <point x="157" y="356" type="line"/>
      <point x="218" y="376" type="line"/>
      <point x="210" y="319" type="line"/>
      <point x="150" y="300" type="line"/>
      <point x="122" y="67" type="line"/>
    </contour>
  </outline>
</glyph>
<glyph name="uni0145" format="1">
  <advance width="863"/>
  <unicode hex="0145"/>
  <outline>
    <contour>
      <point x="257" y="60" type="line"/>
      <point x="249" y="0" type="line"/>
      <point x="21" y="0" type="line"/>
      <point x="29" y="60" type="line"/>
      <point x="106" y="60" type="line"/>
      <point x="179" y="654" type="line"/>
      <point x="99" y="654" type="line"/>
      <point x="107" y="714" type="line"/>
      <point x="217" y="714" type="line"/>
      <point x="241" y="678"/>
      <point x="311" y="586"/>
      <point x="390" y="485"/>
      <point x="473" y="380"/>
      <point x="551" y="280"/>
      <point x="619" y="190"/>
      <point x="642" y="155" type="qcurve"/>
      <point x="658" y="128" type="line"/>
      <point x="658" y="136"/>
      <point x="659" y="153"/>
      <point x="659" y="161" type="qcurve"/>
      <point x="719" y="655" type="line"/>
      <point x="636" y="655" type="line"/>
      <point x="644" y="715" type="line"/>
      <point x="872" y="715" type="line"/>
      <point x="864" y="655" type="line"/>
      <point x="787" y="655" type="line"/>
      <point x="703" y="-33" type="line"/>
      <point x="679" y="2"/>
      <point x="605" y="99"/>
      <point x="520" y="209"/>
      <point x="429" y="324"/>
      <point x="345" y="434"/>
      <point x="275" y="529"/>
      <point x="253" y="564" type="qcurve"/>
      <point x="237" y="590" type="line"/>
      <point x="236" y="582"/>
      <point x="236" y="566"/>
      <point x="236" y="558" type="qcurve"/>
      <point x="175" y="60" type="line"/>
    </contour>
    <contour>
      <point x="438" y="-21" type="line"/>
      <point x="424" y="-47"/>
      <point x="405" y="-81"/>
      <point x="388" y="-111"/>
      <point x="369" y="-145"/>
      <point x="355" y="-171" type="qcurve"/>
      <point x="306" y="-171" type="line"/>
      <point x="319" y="-145"/>
      <point x="336" y="-111"/>
      <point x="350" y="-81"/>
      <point x="367" y="-47"/>
      <point x="380" y="-21" type="qcurve"/>
    </contour>
  </outline>
</glyph>
<glyph name="rcaron" format="1">
  <advance width="333"/>
  <unicode hex="0159"/>
  <outline>
    <contour>
      <point x="130" y="67" type="line"/>
      <point x="127" y="51" type="line"/>
      <point x="127" y="48" type="line"/>
      <point x="216" y="48" type="line"/>
      <point x="210" y="0" type="line"/>
      <point x="-2" y="0" type="line"/>
      <point x="4" y="48" type="line"/>
      <point x="72" y="48" type="line"/>
      <point x="110" y="351" type="line"/>
      <point x="41" y="351" type="line"/>
      <point x="48" y="400" type="line"/>
      <point x="163" y="400" type="line"/>
      <point x="155" y="297" type="line"/>
      <point x="170" y="323"/>
      <point x="213" y="364"/>
      <point x="262" y="393"/>
      <point x="313" y="409"/>
      <point x="335" y="409" type="qcurve"/>
      <point x="316" y="340" type="line"/>
      <point x="286" y="340"/>
      <point x="228" y="321"/>
      <point x="181" y="287"/>
      <point x="150" y="238"/>
      <point x="147" y="208" type="qcurve"/>
      <point x="129" y="67" type="line"/>
    </contour>
    <contour>
      <point x="200" y="483" type="qcurve"/>
      <point x="175" y="515"/>
      <point x="154" y="542" type="qcurve"/>
      <point x="136" y="565"/>
      <point x="101" y="609"/>
      <point x="96" y="617" type="qcurve"/>
      <point x="139" y="617" type="line"/>
      <point x="208" y="547" type="line"/>
      <point x="294" y="617" type="line"/>
      <point x="338" y="617" type="line"/>
      <point x="330" y="608"/>
      <point x="285" y="564"/>
      <point x="261" y="541" type="qcurve"/>
      <point x="233" y="514"/>
    </contour>
  </outline>
</glyph>
<glyph name="Scaron" format="1">
  <advance width="564"/>
  <unicode hex="0160"/>
  <outline>
    <contour>
      <point x="26" y="61" type="line"/>
      <point x="26" y="62" type="line"/>
      <point x="40" y="173" type="line"/>
      <point x="104" y="173" type="line"/>
      <point x="95" y="100" type="line"/>
      <point x="125" y="82"/>
      <point x="199" y="59"/>
      <point x="237" y="59" type="qcurve"/>
      <point x="267" y="59"/>
      <point x="337" y="76"/>
      <point x="396" y="113"/>
      <point x="436" y="172"/>
      <point x="436" y="213" type="qcurve"/>
      <point x="436" y="255"/>
      <point x="387" y="307"/>
      <point x="314" y="345"/>
      <point x="228" y="376"/>
      <point x="155" y="416"/>
      <point x="106" y="473"/>
      <point x="106" y="519" type="qcurve"/>
      <point x="106" y="557"/>
      <point x="140" y="629"/>
      <point x="202" y="684"/>
      <point x="291" y="718"/>
      <point x="345" y="718" type="qcurve"/>
      <point x="373" y="718"/>
      <point x="431" y="709"/>
      <point x="481" y="696"/>
      <point x="521" y="682"/>
      <point x="531" y="677" type="qcurve"/>
      <point x="517" y="562" type="line"/>
      <point x="453" y="562" type="line"/>
      <point x="462" y="636" type="line"/>
      <point x="434" y="644"/>
      <point x="373" y="656"/>
      <point x="344" y="656" type="qcurve"/>
      <point x="306" y="656"/>
      <point x="243" y="636"/>
      <point x="198" y="602"/>
      <point x="174" y="556"/>
      <point x="174" y="531" type="qcurve"/>
      <point x="174" y="496"/>
      <point x="223" y="453"/>
      <point x="296" y="420"/>
      <point x="382" y="389"/>
      <point x="455" y="342"/>
      <point x="504" y="273"/>
      <point x="504" y="218" type="qcurve"/>
      <point x="504" y="168"/>
      <point x="467" y="85"/>
      <point x="397" y="25"/>
      <point x="295" y="-8"/>
      <point x="231" y="-8" type="qcurve"/>
      <point x="189" y="-8"/>
      <point x="123" y="7"/>
      <point x="73" y="28"/>
      <point x="38" y="52"/>
      <point x="27" y="61" type="qcurve"/>
    </contour>
    <contour>
      <point x="341" y="753" type="qcurve"/>
      <point x="316" y="785"/>
      <point x="295" y="812" type="qcurve"/>
      <point x="277" y="835"/>
      <point x="242" y="879"/>
      <point x="237" y="887" type="qcurve"/>
      <point x="280" y="887" type="line"/>
      <point x="349" y="817" type="line"/>
      <point x="435" y="887" type="line"/>
      <point x="479" y="887" type="line"/>
      <point x="471" y="878"/>
      <point x="426" y="834"/>
      <point x="402" y="811" type="qcurve"/>
      <point x="374" y="784"/>
    </contour>
  </outline>
</glyph>
<glyph name="tcaron" format="1">
  <advance width="282"/>
  <unicode hex="0165"/>
  <outline>
    <contour>
      <point x="132" y="575" type="line"/>
      <point x="187" y="575" type="line"/>
      <point x="165" y="396" type="line"/>
      <point x="284" y="396" type="line"/>
      <point x="277" y="346" type="line"/>
      <point x="159" y="346" type="line"/>
      <point x="123" y="48" type="line"/>
      <point x="217" y="48" type="line"/>
      <point x="211" y="0" type="line"/>
      <point x="62" y="0" type="line"/>
      <point x="70" y="68" type="line"/>
      <point x="104" y="346" type="line"/>
      <point x="23" y="346" type="line"/>
      <point x="30" y="396" type="line"/>
      <point x="110" y="396" type="line"/>
    </contour>
    <contour>
      <point x="285" y="573" type="qcurve"/>
      <point x="259" y="595" type="line"/>
      <point x="283" y="615"/>
      <point x="309" y="675"/>
      <point x="306" y="710" type="qcurve"/>
      <point x="348" y="717" type="line"/>
      <point x="351" y="675"/>
      <point x="317" y="600"/>
    </contour>
  </outline>
</glyph>
<glyph name="Uhungarumlaut" format="1">
  <advance width="747"/>
  <unicode hex="0170"/>
  <outline>
    <contour>
      <point x="322" y="714" type="line"/>
      <point x="314" y="654" type="line"/>
      <point x="234" y="654" type="line"/>
      <point x="185" y="246" type="line"/>
      <point x="179" y="203"/>
      <point x="198" y="133"/>
      <point x="242" y="84"/>
      <point x="307" y="57"/>
      <point x="347" y="57" type="qcurve"/>
      <point x="386" y="57"/>
      <point x="458" y="84"/>
      <point x="514" y="133"/>
      <point x="551" y="203"/>
      <point x="556" y="246" type="qcurve"/>
      <point x="606" y="654" type="line"/>
      <point x="614" y="714" type="line"/>
      <point x="761" y="714" type="line"/>
      <point x="753" y="654" type="line"/>
      <point x="674" y="654" type="line"/>
      <point x="625" y="243" type="line"/>
      <point x="617" y="184"/>
      <point x="566" y="91"/>
      <point x="490" y="27"/>
      <point x="393" y="-8"/>
      <point x="339" y="-8" type="qcurve"/>
      <point x="285" y="-8"/>
      <point x="197" y="27"/>
      <point x="137" y="91"/>
      <point x="109" y="184"/>
      <point x="116" y="243" type="qcurve"/>
      <point x="166" y="654" type="line"/>
      <point x="86" y="654" type="line"/>
      <point x="94" y="714" type="line"/>
    </contour>
    <contour>
      <point x="534" y="758" type="line"/>
      <point x="641" y="892" type="line"/>
      <point x="701" y="892" type="line"/>
      <point x="577" y="758" type="line"/>
    </contour>
    <contour>
      <point x="314" y="758" type="line"/>
      <point x="341" y="791"/>
      <point x="395" y="858"/>
      <point x="421" y="892" type="qcurve"/>
      <point x="481" y="892" type="line"/>
      <point x="358" y="758" type="line"/>
    </contour>
  </outline>
</glyph>
<glyph name="Etilde" format="1">
  <advance width="647"/>
  <unicode hex="1EBC"/>
  <outline>
    <contour>
      <point x="556" y="580" type="line"/>
      <point x="564" y="652" type="line"/>
      <point x="248" y="652" type="line"/>
      <point x="216" y="391" type="line"/>
      <point x="558" y="391" type="line"/>
      <point x="550" y="327" type="line"/>
      <point x="208" y="327" type="line"/>
      <point x="176" y="64" type="line"/>
      <point x="507" y="64" type="line"/>
      <point x="516" y="140" type="line"/>
      <point x="581" y="140" type="line"/>
      <point x="567" y="33" type="line"/>
      <point x="563" y="0" type="line"/>
      <point x="22" y="0" type="line"/>
      <point x="30" y="60" type="line"/>
      <point x="107" y="60" type="line"/>
      <point x="179" y="654" type="line"/>
      <point x="102" y="654" type="line"/>
      <point x="110" y="714" type="line"/>
      <point x="637" y="714" type="line"/>
      <point x="632" y="679" type="line"/>
      <point x="633" y="679" type="line"/>
      <point x="620" y="580" type="line"/>
    </contour>
    <contour>
      <point x="423" y="793" type="qcurve"/>
      <point x="409" y="810"/>
      <point x="388" y="821"/>
      <point x="374" y="821" type="qcurve"/>
      <point x="366" y="821"/>
      <point x="347" y="817"/>
      <point x="328" y="806"/>
      <point x="312" y="786"/>
      <point x="309" y="771" type="qcurve"/>
      <point x="276" y="773" type="line"/>
      <point x="279" y="793"/>
      <point x="300" y="823"/>
      <point x="328" y="844"/>
      <point x="359" y="854"/>
      <point x="374" y="854" type="qcurve"/>
      <point x="397" y="854"/>
      <point x="430" y="836"/>
      <point x="444" y="819" type="qcurve"/>
      <point x="458" y="802"/>
      <point x="480" y="791"/>
      <point x="494" y="791" type="qcurve"/>
      <point x="501" y="791"/>
      <point x="521" y="795"/>
      <point x="540" y="806"/>
      <point x="555" y="826"/>
      <point x="559" y="841" type="qcurve"/>
      <point x="592" y="839" type="line"/>
      <point x="588" y="819"/>
      <point x="568" y="789"/>
      <point x="540" y="768"/>
      <point x="508" y="758"/>
      <point x="493" y="758" type="qcurve"/>
      <point x="471" y="758"/>
      <point x="437" y="777"/>
    </contour>
  </outline>
</glyph>
<glyph name="quoteright" format="1">
  <advance width="184"/>
  <unicode hex="2019"/>
  <outline>
    <contour>
      <point x="116" y="573" type="qcurve"/>
      <point x="90" y="595" type="line"/>
      <point x="114" y="615"/>
      <point x="140" y="675"/>
      <point x="137" y="710" type="qcurve"/>
      <point x="179" y="717" type="line"/>
      <point x="182" y="675"/>
      <point x="148" y="600"/>
    </contour>
  </outline>
</glyph>
<glyph name="daggerdbl" format="1">
  <advance width="401"/>
  <unicode hex="2021"/>
  <outline>
    <contour>
      <point x="141" y="32" type="line"/>
      <point x="166" y="241" type="line"/>
      <point x="46" y="241" type="line"/>
      <point x="53" y="298" type="line"/>
      <point x="173" y="298" type="line"/>
      <point x="186" y="399" type="line"/>
      <point x="108" y="399" type="line"/>
      <point x="114" y="456" type="line"/>
      <point x="193" y="456" type="line"/>
      <point x="210" y="596" type="line"/>
      <point x="269" y="596" type="line"/>
      <point x="252" y="456" type="line"/>
      <point x="330" y="456" type="line"/>
      <point x="323" y="399" type="line"/>
      <point x="245" y="399" type="line"/>
      <point x="232" y="298" type="line"/>
      <point x="354" y="298" type="line"/>
      <point x="347" y="241" type="line"/>
      <point x="225" y="241" type="line"/>
      <point x="200" y="32" type="line"/>
    </contour>
  </outline>
</glyph>
<glyph name="fraction" format="1">
  <advance width="346"/>
  <unicode hex="2044"/>
  <outline>
    <contour>
      <point x="-31" y="0" type="line"/>
      <point x="64" y="192"/>
      <point x="249" y="569"/>
      <point x="344" y="761" type="qcurve"/>
      <point x="402" y="761" type="line"/>
      <point x="28" y="0" type="line"/>
    </contour>
  </outline>
</glyph>
<glyph name="minus" format="1">
  <advance width="501"/>
  <unicode hex="2212"/>
  <outline>
    <contour>
      <point x="419" y="172" type="line"/>
      <point x="56" y="172" type="line"/>
      <point x="63" y="229" type="line"/>
      <point x="426" y="229" type="line"/>
    </contour>
  </outline>
</glyph>
<glyph name="infinity" format="1">
  <advance width="500"/>
  <unicode hex="221E"/>
  <outline>
    <contour>
      <point x="334" y="225" type="qcurve"/>
      <point x="308" y="225"/>
      <point x="262" y="244"/>
      <point x="249" y="261" type="qcurve"/>
      <point x="232" y="244"/>
      <point x="180" y="225"/>
      <point x="154" y="225" type="qcurve"/>
      <point x="133" y="225"/>
      <point x="102" y="238"/>
      <point x="82" y="259"/>
      <point x="72" y="284"/>
      <point x="72" y="297" type="qcurve"/>
      <point x="72" y="312"/>
      <point x="85" y="342"/>
      <point x="111" y="367"/>
      <point x="149" y="383"/>
      <point x="173" y="383" type="qcurve"/>
      <point x="199" y="383"/>
      <point x="244" y="364"/>
      <point x="258" y="348" type="qcurve"/>
      <point x="275" y="364"/>
      <point x="327" y="383"/>
      <point x="353" y="383" type="qcurve"/>
      <point x="374" y="383"/>
      <point x="405" y="370"/>
      <point x="424" y="350"/>
      <point x="433" y="325"/>
      <point x="433" y="312" type="qcurve"/>
      <point x="433" y="298"/>
      <point x="421" y="267"/>
      <point x="396" y="241"/>
      <point x="359" y="225"/>
    </contour>
    <contour>
      <point x="235" y="304" type="qcurve"/>
      <point x="237" y="322"/>
      <point x="196" y="346"/>
      <point x="170" y="346" type="qcurve"/>
      <point x="141" y="346"/>
      <point x="111" y="317"/>
      <point x="111" y="300" type="qcurve"/>
      <point x="111" y="286"/>
      <point x="133" y="262"/>
      <point x="159" y="262" type="qcurve"/>
      <point x="172" y="262"/>
      <point x="198" y="268"/>
      <point x="219" y="279"/>
      <point x="234" y="295"/>
    </contour>
    <contour>
      <point x="272" y="304" type="qcurve"/>
      <point x="270" y="285"/>
      <point x="313" y="262"/>
      <point x="338" y="262" type="qcurve"/>
      <point x="370" y="262"/>
      <point x="396" y="293"/>
      <point x="396" y="308" type="qcurve"/>
      <point x="396" y="322"/>
      <point x="374" y="346"/>
      <point x="348" y="346" type="qcurve"/>
      <point x="322" y="346"/>
      <point x="275" y="322"/>
    </contour>
  </outline>
</glyph>
<glyph name="notequal" format="1">
  <advance width="669"/>
  <unicode hex="2260"/>
  <outline>
    <contour>
      <point x="601" y="380" type="line"/>
      <point x="594" y="322" type="line"/>
      <point x="403" y="322" type="line"/>
      <point x="269" y="184" type="line"/>
      <point x="577" y="184" type="line"/>
      <point x="570" y="127" type="line"/>
      <point x="214" y="127" type="line"/>
      <point x="82" y="-9" type="line"/>
      <point x="52" y="21" type="line"/>
      <point x="155" y="127" type="line"/>
      <point x="60" y="127" type="line"/>
      <point x="67" y="184" type="line"/>
      <point x="211" y="184" type="line"/>
      <point x="344" y="322" type="line"/>
      <point x="84" y="322" type="line"/>
      <point x="91" y="380" type="line"/>
      <point x="401" y="380" type="line"/>
      <point x="549" y="534" type="line"/>
      <point x="578" y="503" type="line"/>
      <point x="459" y="380" type="line"/>
    </contour>
  </outline>
</glyph>
<glyph name="lozenge" format="1">
  <advance width="416"/>
  <unicode hex="25CA"/>
  <outline>
    <contour>
      <point x="59" y="380" type="line"/>
      <point x="265" y="735" type="line"/>
      <point x="383" y="380" type="line"/>
      <point x="177" y="24" type="line"/>
    </contour>
    <contour>
      <point x="103" y="380" type="line"/>
      <point x="190" y="124" type="line"/>
      <point x="340" y="380" type="line"/>
      <point x="252" y="635" type="line"/>
    </contour>
  </outline>
</glyph>
